<?xml version="1.0" encoding="iso-8859-1"?>
<!-- Generator: Adobe Illustrator 18.0.0, SVG Export Plug-In . SVG Version: 6.00 Build 0)  -->
<!DOCTYPE svg PUBLIC "-//W3C//DTD SVG 1.1//EN" "http://www.w3.org/Graphics/SVG/1.1/DTD/svg11.dtd">
<svg version="1.1" id="Capa_1" xmlns="http://www.w3.org/2000/svg" xmlns:xlink="http://www.w3.org/1999/xlink" x="0px" y="0px"
	 viewBox="0 0 489.952 489.952" style="enable-background:new 0 0 489.952 489.952;" xml:space="preserve">
<g id="XMLID_45_">
	<g id="XMLID_62_">
		<path id="XMLID_63_" d="M489.952,479.976H0v-470h361.894l128.001,123.711v3.026L489.952,479.976z M15.31,465.289h458.879
			l0.396-325.563L355.525,24.664H15.31V465.289z"/>
	</g>
	<g id="XMLID_60_">
		<polygon id="XMLID_61_" points="365.952,222.976 82.952,222.976 82.952,38.976 98.952,38.976 98.952,207.976 351.952,207.976 
			351.952,47.976 365.952,47.976 		"/>
	</g>
	<g id="XMLID_58_">
		<polygon id="XMLID_59_" points="389.952,450.976 374.952,450.976 374.952,310.976 98.952,310.976 98.952,450.976 82.952,450.976 
			82.952,296.976 389.952,296.976 		"/>
	</g>
	<g id="XMLID_56_">
		<rect id="XMLID_57_" x="136.952" y="38.976" width="15" height="154"/>
	</g>
	<g id="XMLID_54_">
		<rect id="XMLID_55_" x="244.952" y="38.976" width="16" height="154"/>
	</g>
	<g id="XMLID_52_">
		<rect id="XMLID_53_" x="191.952" y="38.976" width="14" height="154"/>
	</g>
	<g id="XMLID_50_">
		<rect id="XMLID_51_" x="298.952" y="38.976" width="15" height="154"/>
	</g>
	<g id="XMLID_48_">
		<rect id="XMLID_49_" x="120.952" y="428.976" width="154" height="13"/>
	</g>
	<g id="XMLID_46_">
		<rect id="XMLID_47_" x="290.952" y="428.976" width="23" height="13"/>
	</g>
</g>
<g>
</g>
<g>
</g>
<g>
</g>
<g>
</g>
<g>
</g>
<g>
</g>
<g>
</g>
<g>
</g>
<g>
</g>
<g>
</g>
<g>
</g>
<g>
</g>
<g>
</g>
<g>
</g>
<g>
</g>
</svg>
